<svg xmlns="http://www.w3.org/2000/svg" xmlns:xlink="http://www.w3.org/1999/xlink" version="1.1" xml:space="preserve" width="47" height="29"><rect id="backgroundrect" width="100%" height="100%" x="0" y="0" fill="none" stroke="none" class=""/>

<g class="currentLayer"><title>Layer 1</title><path style="" d="M45.56606371202874,-1.0157193575111023e-7 H1.8615331779309168 C0.8299829455742943,-1.0157193575111023e-7 0,0.8722810367744867 0,1.9450628159256595 v24.88895067969025 c0,1.0789828298977087 0.8359113951855396,1.9471299344131077 1.8615331779309168,1.9471299344131077 h15.526609531850543 c0.5157751161783117,0 0.9742418861145887,-0.3596609432992365 1.1165246767844672,-0.8784821890929616 c1.7409880358356027,-6.258927220172915 2.098671162380715,-9.8265984163481 5.383032247010422,-9.8265984163481 c3.2784326350184623,0 3.764565503140548,4.078224374306856 5.305962402064237,9.851402619334253 c0.13437819118821911,0.5043521273851357 0.573083462420346,0.8474769353602689 1.0730493796353373,0.8474769353602689 h15.301328446623236 c1.0315502323566226,0 1.8615331779309168,-0.8743481552619365 1.8615331779309168,-1.9471299344131077 V1.9512638666721962 C47.42759688995966,0.8722810367744867 46.597613944385365,-1.0157193575111023e-7 45.56606371202874,-1.0157193575111023e-7 zM13.097921341110526,19.568449037588234 c-2.7349914206543406,0 -4.948279275519125,-2.3150589453743944 -4.948279275519125,-5.175810356444181 s2.213287854864784,-5.175810356444181 4.948279275519125,-5.175810356444181 s4.942350825907879,2.3150589453743944 4.942350825907879,5.175810356444181 S15.826984312153622,19.568449037588234 13.097921341110526,19.568449037588234 zM34.32967554884913,19.568449037588234 c-2.7349914206543406,0 -4.948279275519125,-2.3150589453743944 -4.948279275519125,-5.175810356444181 s2.213287854864784,-5.175810356444181 4.948279275519125,-5.175810356444181 c2.7330152707839255,0 4.948279275519125,2.3150589453743944 4.948279275519125,5.175810356444181 S37.06466696950347,19.568449037588234 34.32967554884913,19.568449037588234 z" id="svg_1" class="selected" fill="#000000" fill-opacity="1"/></g></svg>